<svg viewBox="0 0 32 32" xmlns="http://www.w3.org/2000/svg">
  <!-- Ears -->
  <rect x="6" y="4" width="6" height="6" fill="#9B4DE3"/>
  <rect x="20" y="4" width="6" height="6" fill="#9B4DE3"/>
  <rect x="8" y="2" width="4" height="4" fill="#9B4DE3"/>
  <rect x="20" y="2" width="4" height="4" fill="#9B4DE3"/>
  <rect x="9" y="5" width="3" height="3" fill="#FF9ED2"/>
  <rect x="21" y="5" width="3" height="3" fill="#FF9ED2"/>
  
  <!-- Main face - rounder shape -->
  <rect x="8" y="8" width="16" height="16" fill="#9B4DE3"/>
  <rect x="6" y="10" width="20" height="12" fill="#9B4DE3"/>
  <rect x="4" y="12" width="24" height="8" fill="#9B4DE3"/>
  
  <!-- Eyes - bigger and sparkly -->
  <rect x="10" y="12" width="5" height="5" fill="white"/>
  <rect x="17" y="12" width="5" height="5" fill="white"/>
  <rect x="11" y="13" width="3" height="3" fill="black"/>
  <rect x="18" y="13" width="3" height="3" fill="black"/>
  <rect x="12" y="13" width="1" height="1" fill="white"/>
  <rect x="19" y="13" width="1" height="1" fill="white"/>
  
  <!-- Rosy cheeks -->
  <rect x="8" y="16" width="3" height="2" fill="#FF9ED2" fill-opacity="0.6"/>
  <rect x="21" y="16" width="3" height="2" fill="#FF9ED2" fill-opacity="0.6"/>
  
  <!-- Nose -->
  <rect x="15" y="17" width="2" height="2" fill="#FF9ED2"/>
  
  <!-- Mouth - happy expression -->
  <rect x="14" y="19" width="4" height="1" fill="#8034C9"/>
  <rect x="13" y="18" width="1" height="1" fill="#8034C9"/>
  <rect x="18" y="18" width="1" height="1" fill="#8034C9"/>
  
  <!-- Whiskers -->
  <rect x="4" y="15" width="4" height="1" fill="white"/>
  <rect x="4" y="17" width="4" height="1" fill="white"/>
  <rect x="4" y="19" width="4" height="1" fill="white"/>
  
  <rect x="24" y="15" width="4" height="1" fill="white"/>
  <rect x="24" y="17" width="4" height="1" fill="white"/>
  <rect x="24" y="19" width="4" height="1" fill="white"/>
</svg>
